{"title":"BoB - Both of Us (Ft. Taylor Swift) {M4A+MP4}(1080p) [VX][P2PDL]","uid":7714592,"size":39455634,"categoryP":"video","categoryS":"music_videos","magnet":"?xt=urn:btih:7b199b64a97a9f5f1cc2a11c6fd6459f3d15b984&amp;dn=BoB+-+Both+of+Us+%28Ft.+Taylor+Swift%29+%7BM4A%2BMP4%7D%281080p%29+%5BVX%5D%5BP2PDL%5D&amp;tr=udp%3A%2F%2Ftracker.openbittorrent.com%3A80&amp;tr=udp%3A%2F%2Fopen.demonii.com%3A1337&amp;tr=udp%3A%2F%2Ftracker.coppersurfer.tk%3A6969&amp;tr=udp%3A%2F%2Fexodus.desync.com%3A6969","seeders":0,"leechers":3,"uploader":"Vitamin_X","files":-1,"time":1349894842,"description":"Cover:  &lt;a href=&quot;\nhttp://www.shotpix.com/images/18992192160172146436.jpg&quot; rel=&quot;nofollow&quot; target=&quot;_NEW&quot;&gt;\nhttp://www.shotpix.com/images/18992192160172146436.jpg&lt;/a&gt;\n\n\n\nRelease Title: B.o.B - Both of Us ft. Taylor Swift (2012)\n\nMusic video by B.o.B performing Both of Us Featuring Taylor Swift. (C) WMG.\n\n                     1080p Full HD MP4 Video\n                                 +\n                      96 Kbps/VBR M4A Audio\n\n\nSing Along!\nEnglish subtitles included.\n\n\n\nGeneral\nFormat                         : MPEG-4\nFormat profile                 : Base Media / Version 2\nCodec ID                       : mp42\nFile size                      : 34.7 MiB\nDuration                       : 3mn 39s\nOverall bit rate mode          : Variable\nOverall bit rate               : 1 329 Kbps\n\n\nVideo\nID                             : 1\nFormat                         : AVC\nFormat/Info                    : Advanced Video Codec\nDuration                       : 3mn 39s\nBit rate                       : 1 196 Kbps\nWidth                          : 1 920 pixels\nHeight                         : 940 pixels\nFrame rate mode                : Variable\nFrame rate                     : 23.976 fps\nStream size                    : 31.3 MiB (90%)\n\nAudio\nID                             : 2\nFormat                         : AAC\nFormat/Info                    : Advanced Audio Codec\nFormat profile                 : LC\nDuration                       : 3mn 39s\nBit rate mode                  : Variable\nBit rate                       : 126 Kbps\nChannel(s)                     : 2 channels\nChannel positions              : Front: L R\nSampling rate                  : 48.0 KHz\nStream size                    : 3.28 MiB (9%)\n\nSubtitle                       : Yes (English)\n\n\n\n\nScreens:\n\n &lt;a href=&quot;\nhttp://www.shotpix.com/images/96095339388102961195.png&quot; rel=&quot;nofollow&quot; target=&quot;_NEW&quot;&gt;\nhttp://www.shotpix.com/images/96095339388102961195.png&lt;/a&gt; &lt;a href=&quot;\nhttp://www.shotpix.com/images/51610873399696624223.png&quot; rel=&quot;nofollow&quot; target=&quot;_NEW&quot;&gt;\nhttp://www.shotpix.com/images/51610873399696624223.png&lt;/a&gt;\n\nThumbs:\n &lt;a href=&quot;\nhttp://www.shotpix.com/images/60863106733425789170.jpg&quot; rel=&quot;nofollow&quot; target=&quot;_NEW&quot;&gt;\nhttp://www.shotpix.com/images/60863106733425789170.jpg&lt;/a&gt;\n\n\n------------------------------------------------------------------------\n\n\nNotes:\n\n* Best played on VLC Media Player.\n* Install shark007 codecs in case of any kind of problem in playback (For non-VLC Media Player users).\n* Alternatively, install Core AVC codecs, the fastest decoder that there is coupled with Community Center Codec Pack and play on Windows Media Player Classic.\n* Read NFO\n* Help in seeding this torrent as much as you can. \n\n\n\nGreets to: srkfan, VYTO, MgB, staff members at ExtraTorrent, TPB,KAT, 1337x, PublicHD, Ahashare,\nSilverTorrent, TorrentMafia, P2PDL, and all others\n\n\nEncoder Notes: Looking For Early Access To Anything You Can Provide DVDScr, R5, DVDRips, BluRay, Direct Audio, Early Music\nReleases, Seedboxes, Links, Dedicated Servers anything u can provide, Advance / Promo CDs/DVDs. If You Got anything to\noffer contact me at &quot;&lt;a class=&quot;__cf_email__&quot; href=&quot;/cdn-cgi/l/email-protection&quot; data-cfemail=&quot;abc8c4c5dfcac8dfebdfc2c5d2c685cede&quot;&gt;[email&amp;#160;protected]&lt;/a&gt;&lt;script cf-hash='f9e31' type=&quot;text/javascript&quot;&gt;\n/* &lt;![CDATA[ */!function(){try{var t=&quot;currentScript&quot;in document?document.currentScript:function(){for(var t=document.getElementsByTagName(&quot;script&quot;),e=t.length;e--;)if(t[e].getAttribute(&quot;cf-hash&quot;))return t[e]}();if(t&amp;&amp;t.previousSibling){var e,r,n,i,c=t.previousSibling,a=c.getAttribute(&quot;data-cfemail&quot;);if(a){for(e=&quot;&quot;,r=parseInt(a.substr(0,2),16),n=2;a.length-n;n+=2)i=parseInt(a.substr(n,2),16)^r,e+=String.fromCharCode(i);e=document.createTextNode(e),c.parentNode.replaceChild(e,c)}}}catch(u){}}();/* ]]&gt; */&lt;/script&gt;&quot;\n\n\nFacebook Fan Page: www . facebook . com / p2pdl\n\n                                 Enjoy!","torrent":{"xt":"urn:btih:7b199b64a97a9f5f1cc2a11c6fd6459f3d15b984","amp;dn":"BoB+-+Both+of+Us+%28Ft.+Taylor+Swift%29+%7BM4A%2BMP4%7D%281080p%29+%5BVX%5D%5BP2PDL%5D","amp;tr":["udp%3A%2F%2Ftracker.openbittorrent.com%3A80","udp%3A%2F%2Fopen.demonii.com%3A1337","udp%3A%2F%2Ftracker.coppersurfer.tk%3A6969","udp%3A%2F%2Fexodus.desync.com%3A6969"],"infoHash":"7b199b64a97a9f5f1cc2a11c6fd6459f3d15b984","infoHashBuffer":{"type":"Buffer","data":[123,25,155,100,169,122,159,95,28,194,161,28,111,214,69,159,61,21,185,132]},"announce":[],"urlList":[]}}